<svg id="Layer_1" data-name="Layer 1" xmlns="http://www.w3.org/2000/svg" viewBox="0 0 47.94 37.39"><title>dm_</title><path d="M21.23,37.39a1.57,1.57,0,0,1-.67-.14c-.7-.35-1.29-.85-.84-3.25a.21.21,0,0,0,0-.19.25.25,0,0,0-.18-.08H12.77a.93.93,0,1,1,0-1.85h9.07a1.38,1.38,0,1,0,0-2.76H15.92a.92.92,0,0,1-.85-.92.94.94,0,0,1,.87-.92h9.6a1.38,1.38,0,1,0,0-2.76H5.5a.93.93,0,1,1,0-1.85H33.84a1.38,1.38,0,0,0,0-2.76H15.69a.92.92,0,0,1,.08-1.84H27.38a1.38,1.38,0,1,0,0-2.76H.93a.93.93,0,1,1,0-1.85h20a1.38,1.38,0,0,0,0-2.76H13.56a.93.93,0,0,1,0-1.85H24.62a1.38,1.38,0,0,0,0-2.76H9.24a.93.93,0,1,1,0-1.85H19.55a.21.21,0,0,0,.18-.09.21.21,0,0,0,0-.19c-.64-2.89,0-3.46.79-3.86A1.57,1.57,0,0,1,21.23,0a4.24,4.24,0,0,1,2,.7L46.11,16.13a3.67,3.67,0,0,1,1.83,2.57,3.67,3.67,0,0,1-1.83,2.56L23.23,36.69a4.18,4.18,0,0,1-2,.7Zm15.16-22a1.38,1.38,0,1,0,1.38,1.38A1.38,1.38,0,0,0,36.39,15.34Zm-4.35,0a1.38,1.38,0,1,0,1.38,1.38A1.38,1.38,0,0,0,32,15.34ZM9.12,27.05a1.16,1.16,0,1,0,1.16,1.15A1.15,1.15,0,0,0,9.12,27.05Zm.12-9.51a1.16,1.16,0,1,0,1.15,1.16A1.16,1.16,0,0,0,9.24,17.54Z" style="fill:#21f9ee"/></svg>