<svg id="Layer_1" data-name="Layer 1" xmlns="http://www.w3.org/2000/svg" viewBox="0 0 84.96 19.47"><title>dm_</title><path d="M30.84,10.75a3.23,3.23,0,0,1,.22-1.2A2.7,2.7,0,0,1,32.52,8a2.7,2.7,0,0,1,1.1-.22,2.23,2.23,0,0,1,1.82.78h0V4.91h1.32v8.7H35.53v-.78h0a2.21,2.21,0,0,1-1.88.87,3,3,0,0,1-1.11-.21,2.67,2.67,0,0,1-.88-.59,2.71,2.71,0,0,1-.58-.94A3.18,3.18,0,0,1,30.84,10.75Zm1.35,0A1.72,1.72,0,0,0,32.65,12a1.55,1.55,0,0,0,1.19.49A1.6,1.6,0,0,0,35,12a1.7,1.7,0,0,0,.49-1.25,1.84,1.84,0,0,0-.47-1.29,1.69,1.69,0,0,0-2.4,0A1.84,1.84,0,0,0,32.19,10.76Z" style="fill:#ff0062"/><path d="M37.86,10.75a3.44,3.44,0,0,1,.21-1.2,2.94,2.94,0,0,1,.59-1A2.65,2.65,0,0,1,39.54,8a2.7,2.7,0,0,1,1.1-.22,2.21,2.21,0,0,1,1.78.78h0V7.85h1.32v5.76H42.5v-.78h0a2.16,2.16,0,0,1-1.83.87,2.89,2.89,0,0,1-1.11-.21,2.57,2.57,0,0,1-.88-.59,2.89,2.89,0,0,1-.59-.94A3.38,3.38,0,0,1,37.86,10.75Zm1.34,0A1.77,1.77,0,0,0,39.66,12a1.57,1.57,0,0,0,1.2.49A1.54,1.54,0,0,0,42,12a1.7,1.7,0,0,0,.48-1.25A1.84,1.84,0,0,0,42,9.48,1.49,1.49,0,0,0,40.86,9a1.57,1.57,0,0,0-1.18.49A1.81,1.81,0,0,0,39.2,10.76Z" style="fill:#ff0062"/><path d="M45.09,9V7.85h.7V5.93l1.32-.14V7.85h1.7V9h-1.7v2.69a1.07,1.07,0,0,0,.14.62.48.48,0,0,0,.41.18,1.9,1.9,0,0,0,.86-.24l.34,1.14a3.06,3.06,0,0,1-.63.25,3.13,3.13,0,0,1-.83.09,1.49,1.49,0,0,1-1.19-.49,2.12,2.12,0,0,1-.42-1.43V9Z" style="fill:#ff0062"/><path d="M49.69,10.75a3.45,3.45,0,0,1,.22-1.2A2.7,2.7,0,0,1,51.37,8a2.7,2.7,0,0,1,1.1-.22,2.19,2.19,0,0,1,1.78.78h0V7.85H55.6v5.76H54.34v-.78h0a2.17,2.17,0,0,1-1.84.87,3,3,0,0,1-1.11-.21,2.67,2.67,0,0,1-.88-.59,2.71,2.71,0,0,1-.58-.94A3.38,3.38,0,0,1,49.69,10.75Zm1.35,0A1.72,1.72,0,0,0,51.5,12a1.55,1.55,0,0,0,1.19.49A1.53,1.53,0,0,0,53.85,12a1.7,1.7,0,0,0,.48-1.25,1.88,1.88,0,0,0-.46-1.28A1.49,1.49,0,0,0,52.7,9a1.58,1.58,0,0,0-1.19.49A1.84,1.84,0,0,0,51,10.76Z" style="fill:#ff0062"/><path d="M57.26,13.61V7.85h1.32v.79h0A2.54,2.54,0,0,1,59.42,8a2.27,2.27,0,0,1,1-.23,1.8,1.8,0,0,1,1.72,1h0A2.44,2.44,0,0,1,63,8a2.78,2.78,0,0,1,1.17-.24,1.84,1.84,0,0,1,1.5.63,2.85,2.85,0,0,1,.52,1.88v3.34H64.91v-3c0-1.1-.38-1.65-1.13-1.65a1.21,1.21,0,0,0-1,.47,2,2,0,0,0-.38,1.3v2.88H61.12v-3C61.12,9.51,60.73,9,60,9a1.25,1.25,0,0,0-1,.47,2,2,0,0,0-.39,1.3v2.88Z" style="fill:#ff0062"/><path d="M67.25,10.72a3.36,3.36,0,0,1,.21-1.2,2.73,2.73,0,0,1,.59-.94,2.59,2.59,0,0,1,.89-.6,2.78,2.78,0,0,1,1.11-.22,2.88,2.88,0,0,1,1.48.37,2.52,2.52,0,0,1,1,1,3.12,3.12,0,0,1,.34,1.49,3.64,3.64,0,0,1,0,.52h-4.2a1.58,1.58,0,0,0,.57,1,1.68,1.68,0,0,0,1.07.35,1.75,1.75,0,0,0,1.44-.68l.92.79a2.74,2.74,0,0,1-1,.79,3.19,3.19,0,0,1-1.42.3,3.11,3.11,0,0,1-1.5-.36,2.74,2.74,0,0,1-1.06-1.05A3.23,3.23,0,0,1,67.25,10.72Zm1.39-.6h2.88A1.53,1.53,0,0,0,71,9.27,1.35,1.35,0,0,0,70.12,9a1.51,1.51,0,0,0-.94.3A1.46,1.46,0,0,0,68.64,10.12Z" style="fill:#ff0062"/><path d="M73.73,12.86l.67-1a2.19,2.19,0,0,0,1.65.68,1.07,1.07,0,0,0,.6-.16.48.48,0,0,0,.21-.41.39.39,0,0,0-.24-.34,7.36,7.36,0,0,0-.9-.36,5.37,5.37,0,0,1-.55-.21,2.83,2.83,0,0,1-.47-.27,1.64,1.64,0,0,1-.39-.34,1.82,1.82,0,0,1-.25-.46A1.89,1.89,0,0,1,74,9.4a1.45,1.45,0,0,1,.57-1.17A2.22,2.22,0,0,1,76,7.76a3.13,3.13,0,0,1,2,.73l-.66,1a2.21,2.21,0,0,0-.71-.46,1.87,1.87,0,0,0-.74-.16.83.83,0,0,0-.43.13.42.42,0,0,0-.2.37.46.46,0,0,0,.23.36,3.66,3.66,0,0,0,.69.34l.24.1.45.17c.09,0,.22.09.37.17a2.22,2.22,0,0,1,.33.18,2.32,2.32,0,0,1,.25.22.78.78,0,0,1,.2.27,2,2,0,0,1,.11.32,1.77,1.77,0,0,1,0,.41,1.74,1.74,0,0,1-.14.69,1.5,1.5,0,0,1-.39.55,1.8,1.8,0,0,1-.67.37,3.13,3.13,0,0,1-1,.14A3.4,3.4,0,0,1,73.73,12.86Z" style="fill:#ff0062"/><path d="M79.52,13.61V4.91h1.32V8.57h0A2.29,2.29,0,0,1,81.72,8a3,3,0,0,1,1.09-.2,2.6,2.6,0,0,1,.87.14,1.82,1.82,0,0,1,.68.41,1.84,1.84,0,0,1,.44.75,3.31,3.31,0,0,1,.16,1.1v3.45H83.64V10.5a1.78,1.78,0,0,0-.32-1.19A1.2,1.2,0,0,0,82.39,9a1.48,1.48,0,0,0-1.14.44,1.78,1.78,0,0,0-.41,1.28v2.93Z" style="fill:#ff0062"/><path d="M23.9,8.32,12.13.38A1.69,1.69,0,0,0,10.64.09c-.52.25-.79.65-.47,2.11H4.87a.6.6,0,1,0,0,1.19h7.91a.6.6,0,0,1,.59.6.59.59,0,0,1-.59.59H7.09a.59.59,0,0,0,0,1.18h3.79a.59.59,0,0,1,.59.59.6.6,0,0,1-.59.6H.59a.6.6,0,0,0,0,1.19H14.2a.59.59,0,0,1,.59.6.58.58,0,0,1-.59.59h-6a.59.59,0,0,0,0,1.18h9.33a.6.6,0,1,1,0,1.19H2.94a.6.6,0,0,0,0,1.19H13.25a.59.59,0,0,1,0,1.18H8.31a.61.61,0,0,0-.56.59.59.59,0,0,0,.56.59h3a.6.6,0,1,1,0,1.19H6.68a.59.59,0,1,0,0,1.18h3.47c-.23,1.2,0,1.57.49,1.8a1.69,1.69,0,0,0,1.49-.29L23.9,11.15a2,2,0,0,0,1-1.42h0A2,2,0,0,0,23.9,8.32Zm-7.31,1A.59.59,0,0,1,16,8.72a.6.6,0,1,1,1.19,0A.59.59,0,0,1,16.59,9.31Zm2.24,0a.58.58,0,0,1-.59-.59.59.59,0,0,1,.59-.6.6.6,0,0,1,.6.6A.59.59,0,0,1,18.83,9.31ZM5.4,14.62a.59.59,0,0,1-.59.6.6.6,0,1,1,0-1.19A.59.59,0,0,1,5.4,14.62Zm-.53-4.29a.6.6,0,1,1,0-1.19.6.6,0,0,1,0,1.19Z" style="fill:#ff0062"/></svg>