<svg id="Layer_1" data-name="Layer 1" xmlns="http://www.w3.org/2000/svg" viewBox="0 0 166.43 41.66"><title>dm_</title><path d="M51.14,17.79,26,.81C25.05.27,23.76-.3,22.77.18s-1.69,1.41-1,4.53H10.42a1.27,1.27,0,0,0,0,2.54H27.34a1.27,1.27,0,0,1,0,2.54H15.18a1.27,1.27,0,1,0,0,2.54h8.1a1.27,1.27,0,0,1,0,2.54h-22a1.27,1.27,0,0,0,0,2.54H30.39a1.27,1.27,0,0,1,0,2.54H17.61a1.27,1.27,0,0,0-.09,2.53h20a1.27,1.27,0,1,1,0,2.54H6.3a1.27,1.27,0,0,0,0,2.54H28.36a1.27,1.27,0,0,1,0,2.54H17.77a1.26,1.26,0,0,0,0,2.52h6.52a1.27,1.27,0,0,1,0,2.54h-10a1.27,1.27,0,1,0,0,2.54h7.4c-.48,2.56.06,3.36,1.06,3.85s2.28-.09,3.19-.62l25.18-17a4.28,4.28,0,0,0,2.13-3h0A4.29,4.29,0,0,0,51.14,17.79ZM35.51,19.93a1.27,1.27,0,1,1,1.27-1.27A1.27,1.27,0,0,1,35.51,19.93Zm4.79,0a1.27,1.27,0,1,1,1.27-1.27A1.27,1.27,0,0,1,40.3,19.93ZM11.56,31.29A1.27,1.27,0,1,1,10.29,30,1.27,1.27,0,0,1,11.56,31.29ZM10.42,22.1a1.27,1.27,0,1,1,1.27-1.27A1.27,1.27,0,0,1,10.42,22.1Z" style="fill:#2e1a35"/><path d="M66,20.85a7.13,7.13,0,0,1,.47-2.59,6.08,6.08,0,0,1,1.25-2.06,5.86,5.86,0,0,1,1.91-1.33A5.76,5.76,0,0,1,72,14.38a4.88,4.88,0,0,1,3.94,1.68H76V8.22h2.86V27H76.1V25.35h0a4.78,4.78,0,0,1-4,1.87,6.15,6.15,0,0,1-2.4-.46,5.51,5.51,0,0,1-1.92-1.27,5.81,5.81,0,0,1-1.25-2A7.18,7.18,0,0,1,66,20.85Zm2.91,0a3.75,3.75,0,0,0,1,2.71,3.36,3.36,0,0,0,2.58,1.06A3.51,3.51,0,0,0,75,23.58a3.67,3.67,0,0,0,1-2.72,4,4,0,0,0-1-2.78,3.61,3.61,0,0,0-5.17,0A3.87,3.87,0,0,0,68.87,20.86Z" style="fill:#2e1a35"/><path d="M81.17,20.81a6.65,6.65,0,0,1,.8-3.29,5.81,5.81,0,0,1,2.31-2.3,6.89,6.89,0,0,1,3.43-.84,7.06,7.06,0,0,1,3.38.8,5.85,5.85,0,0,1,2.32,2.28,6.74,6.74,0,0,1,.83,3.35,6.7,6.7,0,0,1-.83,3.34,5.85,5.85,0,0,1-2.33,2.27,7,7,0,0,1-3.37.8A7.14,7.14,0,0,1,85,26.73,6,6,0,0,1,83,25.39a6.12,6.12,0,0,1-1.31-2A6.72,6.72,0,0,1,81.17,20.81Zm2.9,0a3.81,3.81,0,0,0,1,2.72,3.41,3.41,0,0,0,2.61,1.1,3.46,3.46,0,0,0,2.58-1.08,3.76,3.76,0,0,0,1-2.74,3.8,3.8,0,0,0-1-2.76,3.67,3.67,0,0,0-5.22,0A3.91,3.91,0,0,0,84.07,20.81Z" style="fill:#2e1a35"/><path d="M95.57,17V14.57h1.52V10.43l2.86-.31v4.45h3.66V17H100v5.82a2.26,2.26,0,0,0,.29,1.33,1,1,0,0,0,.9.4A4.1,4.1,0,0,0,103,24l.74,2.46a5.63,5.63,0,0,1-1.36.55,6.83,6.83,0,0,1-1.8.19,3.21,3.21,0,0,1-2.56-1,4.58,4.58,0,0,1-.92-3.09V17Z" style="fill:#2e1a35"/><path d="M106.74,27V14.57h2.86v1.72h0a5.13,5.13,0,0,1,1.77-1.42,4.76,4.76,0,0,1,2.11-.49,3.88,3.88,0,0,1,3.72,2.07h.05a5.16,5.16,0,0,1,1.93-1.54,6,6,0,0,1,2.53-.53A4,4,0,0,1,125,15.73a6.24,6.24,0,0,1,1.14,4.09V27h-2.86V20.54q0-3.57-2.44-3.57a2.6,2.6,0,0,0-2.08,1,4.37,4.37,0,0,0-.83,2.81V27h-2.85V20.54q0-3.57-2.48-3.57a2.68,2.68,0,0,0-2.15,1,4.32,4.32,0,0,0-.84,2.81V27Z" style="fill:#2e1a35"/><path d="M128.65,20.79a7.16,7.16,0,0,1,.46-2.61,6,6,0,0,1,1.27-2,5.66,5.66,0,0,1,1.94-1.3,6.55,6.55,0,0,1,5.59.34A5.36,5.36,0,0,1,140,17.42a7,7,0,0,1,.74,3.23,7.06,7.06,0,0,1-.08,1.14h-9.07a3.44,3.44,0,0,0,1.23,2.08,3.63,3.63,0,0,0,2.32.76,3.76,3.76,0,0,0,3.1-1.47l2,1.7a5.9,5.9,0,0,1-2.18,1.72,6.93,6.93,0,0,1-3.07.64,6.63,6.63,0,0,1-3.25-.79,5.58,5.58,0,0,1-2.28-2.26A6.7,6.7,0,0,1,128.65,20.79Zm3-1.31h6.23a3.35,3.35,0,0,0-1.05-1.83,2.92,2.92,0,0,0-2-.68,3.24,3.24,0,0,0-2,.66A3.16,3.16,0,0,0,131.67,19.48Z" style="fill:#2e1a35"/><path d="M142.41,25.4l1.45-2.14a4.76,4.76,0,0,0,1.61,1.11,5,5,0,0,0,2,.36,2.11,2.11,0,0,0,1.28-.34,1,1,0,0,0,.47-.88.85.85,0,0,0-.53-.74,16.46,16.46,0,0,0-1.95-.78,12.49,12.49,0,0,1-1.19-.46,6.93,6.93,0,0,1-1-.57,3.87,3.87,0,0,1-.84-.75,3.11,3.11,0,0,1-.53-1,3.79,3.79,0,0,1-.21-1.29,3.13,3.13,0,0,1,1.24-2.54,4.78,4.78,0,0,1,3.13-1A6.89,6.89,0,0,1,151.72,16l-1.43,2.25a5.25,5.25,0,0,0-1.55-1,4.2,4.2,0,0,0-1.59-.33,1.64,1.64,0,0,0-.93.28.87.87,0,0,0-.43.79,1,1,0,0,0,.49.78,8,8,0,0,0,1.5.74l.52.21,1,.37c.21.08.48.21.81.36a4.89,4.89,0,0,1,.72.41c.15.12.33.27.54.46a1.74,1.74,0,0,1,.43.59,3.59,3.59,0,0,1,.23.7,3.51,3.51,0,0,1,.1.89,3.74,3.74,0,0,1-.28,1.47,3.6,3.6,0,0,1-.85,1.2,4.09,4.09,0,0,1-1.46.81,6.83,6.83,0,0,1-2.06.29A7.37,7.37,0,0,1,142.41,25.4Z" style="fill:#2e1a35"/><path d="M154.67,27V8.22h2.85v7.91h0a5,5,0,0,1,1.87-1.31,6.24,6.24,0,0,1,2.34-.44,5.77,5.77,0,0,1,1.89.29,4,4,0,0,1,1.46.91,3.92,3.92,0,0,1,1,1.62,7.62,7.62,0,0,1,.33,2.37V27h-2.85V20.3a3.87,3.87,0,0,0-.68-2.56,2.57,2.57,0,0,0-2-.77,3.21,3.21,0,0,0-2.46,1,3.9,3.9,0,0,0-.89,2.76V27Z" style="fill:#2e1a35"/></svg>