<svg id="Layer_1" data-name="Layer 1" xmlns="http://www.w3.org/2000/svg" viewBox="0 0 181.8 41.66"><title>dm_</title><path d="M66,20.87a7.06,7.06,0,0,1,.46-2.57,6.08,6.08,0,0,1,1.24-2A5.75,5.75,0,0,1,69.59,15,5.82,5.82,0,0,1,72,14.47a4.83,4.83,0,0,1,3.9,1.66h.06V8.37h2.82V27H76V25.32h0a4.71,4.71,0,0,1-4,1.85,6.21,6.21,0,0,1-2.37-.45,5.54,5.54,0,0,1-1.9-1.26,5.85,5.85,0,0,1-1.24-2A7,7,0,0,1,66,20.87Zm2.88,0a3.76,3.76,0,0,0,1,2.68,3.35,3.35,0,0,0,2.56,1.05,3.48,3.48,0,0,0,2.56-1,3.65,3.65,0,0,0,1-2.69,3.92,3.92,0,0,0-1-2.75,3.57,3.57,0,0,0-5.12,0A3.87,3.87,0,0,0,68.88,20.88Z" style="fill:#ff0062"/><path d="M81,20.87a7.27,7.27,0,0,1,.45-2.57,6.1,6.1,0,0,1,1.25-2A5.55,5.55,0,0,1,84.61,15,5.78,5.78,0,0,1,87,14.47a4.7,4.7,0,0,1,3.81,1.66h0V14.65h2.83V27H91V25.32h0A4.64,4.64,0,0,1,87,27.17a6.26,6.26,0,0,1-2.38-.45,5.5,5.5,0,0,1-1.89-1.26,5.87,5.87,0,0,1-1.25-2A7.23,7.23,0,0,1,81,20.87Zm2.87,0a3.73,3.73,0,0,0,1,2.68,3.55,3.55,0,0,0,5,0,3.66,3.66,0,0,0,1-2.68,3.94,3.94,0,0,0-1-2.74A3.2,3.2,0,0,0,87.44,17a3.35,3.35,0,0,0-2.53,1.06A3.83,3.83,0,0,0,83.89,20.88Z" style="fill:#ff0062"/><path d="M96.48,17.06V14.65H98v-4.1l2.83-.3v4.4h3.63v2.41h-3.63v5.76a2.34,2.34,0,0,0,.29,1.32,1,1,0,0,0,.89.39,3.87,3.87,0,0,0,1.83-.53l.74,2.45a7,7,0,0,1-1.35.54,7.22,7.22,0,0,1-1.78.18,3.2,3.2,0,0,1-2.54-1A4.55,4.55,0,0,1,98,23.08v-6Z" style="fill:#ff0062"/><path d="M106.34,20.87a7.06,7.06,0,0,1,.46-2.57,6.08,6.08,0,0,1,1.24-2A5.75,5.75,0,0,1,109.93,15a5.82,5.82,0,0,1,2.36-.48,4.73,4.73,0,0,1,3.81,1.66h.05V14.65H119V27h-2.7V25.32h0a4.61,4.61,0,0,1-3.92,1.85,6.17,6.17,0,0,1-2.37-.45,5.54,5.54,0,0,1-1.9-1.26,5.85,5.85,0,0,1-1.24-2A7,7,0,0,1,106.34,20.87Zm2.87,0a3.73,3.73,0,0,0,1,2.68,3.55,3.55,0,0,0,5,0,3.67,3.67,0,0,0,1-2.68,3.94,3.94,0,0,0-1-2.74,3.23,3.23,0,0,0-2.5-1.11,3.37,3.37,0,0,0-2.54,1.06A3.83,3.83,0,0,0,109.21,20.88Z" style="fill:#ff0062"/><path d="M122.54,27V14.65h2.82v1.7h0a5.25,5.25,0,0,1,1.76-1.4,4.8,4.8,0,0,1,2.09-.48,3.84,3.84,0,0,1,3.68,2h0A5.14,5.14,0,0,1,134.89,15a5.89,5.89,0,0,1,2.5-.52,4,4,0,0,1,3.21,1.33,6.18,6.18,0,0,1,1.12,4V27H138.9V20.56c0-2.35-.81-3.53-2.42-3.53a2.52,2.52,0,0,0-2,1,4.3,4.3,0,0,0-.82,2.78V27h-2.83V20.56c0-2.35-.82-3.53-2.45-3.53a2.61,2.61,0,0,0-2.13,1,4.25,4.25,0,0,0-.84,2.78V27Z" style="fill:#ff0062"/><path d="M143.9,20.81a7,7,0,0,1,.46-2.58,5.86,5.86,0,0,1,1.25-2,5.8,5.8,0,0,1,1.92-1.29,6.53,6.53,0,0,1,5.54.34,5.3,5.3,0,0,1,2.09,2.21,6.76,6.76,0,0,1,.73,3.19,6.94,6.94,0,0,1-.07,1.12h-9a3.38,3.38,0,0,0,1.21,2.06,3.54,3.54,0,0,0,2.3.76,3.72,3.72,0,0,0,3.07-1.46l2,1.69a5.94,5.94,0,0,1-2.15,1.7,7,7,0,0,1-3.05.63A6.75,6.75,0,0,1,147,26.4a5.7,5.7,0,0,1-2.25-2.24A6.71,6.71,0,0,1,143.9,20.81Zm3-1.3h6.16a3.28,3.28,0,0,0-1-1.81,2.84,2.84,0,0,0-1.95-.67,3.29,3.29,0,0,0-2,.65A3.16,3.16,0,0,0,146.89,19.51Z" style="fill:#ff0062"/><path d="M157.77,25.37l1.43-2.12a5,5,0,0,0,1.6,1.11,5.1,5.1,0,0,0,1.95.35,2.1,2.1,0,0,0,1.27-.34,1,1,0,0,0,.46-.87.85.85,0,0,0-.53-.73A14.32,14.32,0,0,0,162,22c-.46-.16-.85-.31-1.18-.46a6,6,0,0,1-1-.56,3.87,3.87,0,0,1-.84-.75,3.19,3.19,0,0,1-.52-1,3.74,3.74,0,0,1-.2-1.28,3.11,3.11,0,0,1,1.22-2.52,4.76,4.76,0,0,1,3.1-1A6.74,6.74,0,0,1,167,16l-1.41,2.23a5.13,5.13,0,0,0-1.53-1,4.19,4.19,0,0,0-1.58-.33,1.68,1.68,0,0,0-.92.27.88.88,0,0,0-.43.79.94.94,0,0,0,.49.77,8.1,8.1,0,0,0,1.48.73l.52.21,1,.37c.21.08.47.2.8.36a4.46,4.46,0,0,1,.71.4c.16.12.33.27.54.46a1.94,1.94,0,0,1,.43.57,5.75,5.75,0,0,1,.23.7,4,4,0,0,1,.09.88,3.72,3.72,0,0,1-.28,1.46,3.36,3.36,0,0,1-.84,1.18,3.8,3.8,0,0,1-1.45.8,6.34,6.34,0,0,1-2,.29A7.28,7.28,0,0,1,157.77,25.37Z" style="fill:#ff0062"/><path d="M170.16,27V8.37H173v7.82H173a5,5,0,0,1,1.84-1.29,6.19,6.19,0,0,1,2.33-.43,5.44,5.44,0,0,1,1.87.29,3.77,3.77,0,0,1,2.4,2.49,7.53,7.53,0,0,1,.33,2.35V27H179V20.33a3.8,3.8,0,0,0-.68-2.54,2.5,2.5,0,0,0-2-.76,3.18,3.18,0,0,0-2.44.95,3.83,3.83,0,0,0-.88,2.73V27Z" style="fill:#ff0062"/><path d="M69.21,32.56h.84a1.8,1.8,0,0,1,.72.12,1.14,1.14,0,0,1,.45.37,2.56,2.56,0,0,1,0,2.7,1.43,1.43,0,0,1-1.19.46h-.77ZM70,35.89q1.2,0,1.2-1.47a2,2,0,0,0-.27-1.13A1,1,0,0,0,70,32.9h-.44v3Z" style="fill:#ff0062"/><path d="M78,36.2l-.37-1.06H76.48l-.37,1.06h-.4l1.35-3.71h0l1.35,3.71Zm-1.44-1.38h1l-.48-1.39Z" style="fill:#ff0062"/><path d="M83.56,36.2V32.92h-1v-.37h2.52v.37H84V36.2Z" style="fill:#ff0062"/><path d="M91.48,36.2l-.36-1.06H89.94l-.37,1.06h-.4l1.34-3.71h0l1.35,3.71Zm-1.43-1.38h1l-.48-1.39Z" style="fill:#ff0062"/><path d="M104.94,36.2l-.37-1.06H103.4L103,36.2h-.41L104,32.49h0l1.34,3.71Zm-1.43-1.38h1L104,33.43Z" style="fill:#ff0062"/><path d="M109.55,32.56h.4l1.53,2.7v-2.7h.45v0a.15.15,0,0,0-.05.07s0,.08,0,.14V36.2h-.32l-1.61-2.86V36.2h-.39Z" style="fill:#ff0062"/><path d="M117.2,36.2V32.92h-1v-.37h2.53v.37h-1.08V36.2Z" style="fill:#ff0062"/><path d="M123.19,36.2v-.34h.72v-3h-.68v-.34H125v.34h-.72v3h.75v.34Z" style="fill:#ff0062"/><path d="M129.86,34.17H132v.39h-2.11Z" style="fill:#ff0062"/><path d="M138.86,34.45v1.43a1.79,1.79,0,0,1-1.07.38A1.26,1.26,0,0,1,137,36a1.46,1.46,0,0,1-.49-.64,2.63,2.63,0,0,1-.17-1,2.66,2.66,0,0,1,.21-1.15,1.31,1.31,0,0,1,.54-.59,1.34,1.34,0,0,1,.63-.16,1.25,1.25,0,0,1,.64.17,1.12,1.12,0,0,1,.45.44l-.29.23h0a1.6,1.6,0,0,0-.37-.37.77.77,0,0,0-.42-.11.86.86,0,0,0-.71.34,1.8,1.8,0,0,0-.27,1.12,2.18,2.18,0,0,0,.26,1.15.85.85,0,0,0,.74.41,1.24,1.24,0,0,0,.37-.06.87.87,0,0,0,.32-.16v-.87h-.66v-.36Zm-.31-1.08,0,0,0,0S138.51,33.34,138.55,33.37Zm0,0h0S138.57,33.39,138.55,33.37Z" style="fill:#ff0062"/><path d="M143.23,32.56h1.07a1.33,1.33,0,0,1,.92.27,1,1,0,0,1,.3.77,1,1,0,0,1-.21.61,1,1,0,0,1-.54.37l.84,1.62h-.45l-.81-1.61h-.71V36.2h-.41Zm1.12,1.67a.81.81,0,0,0,.56-.17.59.59,0,0,0,.18-.46.66.66,0,0,0-.18-.48.77.77,0,0,0-.56-.18h-.71v1.29Z" style="fill:#ff0062"/><path d="M152,36.2l-.37-1.06h-1.18l-.36,1.06h-.41l1.35-3.71h0l1.35,3.71Zm-1.43-1.38h.95l-.47-1.39Z" style="fill:#ff0062"/><path d="M157.74,36.23l-1.24-3.68h.43l.94,2.8.88-2.79h.4l-1.22,3.67Z" style="fill:#ff0062"/><path d="M163.56,36.2v-.34h.72v-3h-.68v-.34h1.81v.34h-.72v3h.75v.34Z" style="fill:#ff0062"/><path d="M171,36.2V32.92h-1v-.37h2.53v.37h-1.07V36.2Z" style="fill:#ff0062"/><path d="M177.83,36.2V34.76l-1.12-2.2h.46l.9,1.76.81-1.76h.43l-1,2.2V36.2Z" style="fill:#ff0062"/><path d="M51.14,17.79,26,.81C25.05.27,23.76-.3,22.77.18s-1.69,1.41-1,4.53H10.42a1.27,1.27,0,0,0,0,2.54H27.34a1.27,1.27,0,0,1,0,2.54H15.18a1.27,1.27,0,1,0,0,2.54h8.1a1.27,1.27,0,0,1,0,2.54h-22a1.27,1.27,0,0,0,0,2.54H30.39a1.27,1.27,0,0,1,0,2.54H17.61a1.27,1.27,0,0,0-.09,2.53h20a1.27,1.27,0,1,1,0,2.54H6.3a1.27,1.27,0,0,0,0,2.54H28.36a1.27,1.27,0,0,1,0,2.54H17.77a1.26,1.26,0,0,0,0,2.52h6.52a1.27,1.27,0,0,1,0,2.54h-10a1.27,1.27,0,1,0,0,2.54h7.4c-.48,2.56.06,3.36,1.06,3.85s2.28-.09,3.19-.62l25.18-17a4.28,4.28,0,0,0,2.13-3h0A4.29,4.29,0,0,0,51.14,17.79ZM35.51,19.93a1.27,1.27,0,1,1,1.27-1.27A1.27,1.27,0,0,1,35.51,19.93Zm4.79,0a1.27,1.27,0,1,1,1.27-1.27A1.27,1.27,0,0,1,40.3,19.93ZM11.56,31.29A1.27,1.27,0,1,1,10.29,30,1.27,1.27,0,0,1,11.56,31.29ZM10.42,22.1a1.27,1.27,0,1,1,1.27-1.27A1.27,1.27,0,0,1,10.42,22.1Z" style="fill:#ff0062"/></svg>