<svg id="Layer_1" data-name="Layer 1" xmlns="http://www.w3.org/2000/svg" viewBox="0 0 48.16 37.56"><title>dm_</title><path d="M21.32,37.56a1.49,1.49,0,0,1-.67-.14c-.7-.35-1.29-.86-.83-3.26a.23.23,0,0,0-.23-.27H12.83a.94.94,0,0,1,0-1.87h9.11a1.39,1.39,0,1,0,0-2.77H16a.93.93,0,0,1,0-1.85h9.64a1.39,1.39,0,1,0,0-2.77H5.52a.93.93,0,0,1,0-1.86H34A1.39,1.39,0,1,0,34,20H15.76a.92.92,0,0,1-.85-.92.93.93,0,0,1,.93-.93H27.51a1.39,1.39,0,0,0,0-2.78H.93a.93.93,0,0,1,0-1.86H21a1.39,1.39,0,0,0,0-2.78H13.63a.93.93,0,1,1,0-1.86h11.1a1.39,1.39,0,0,0,0-2.77H9.28a.93.93,0,1,1,0-1.86H19.64a.24.24,0,0,0,.18-.09A.25.25,0,0,0,19.87,4c-.65-2.91,0-3.48.78-3.88A1.64,1.64,0,0,1,21.32,0a4.19,4.19,0,0,1,2,.71l23,15.49a3.69,3.69,0,0,1,1.84,2.58,3.69,3.69,0,0,1-1.83,2.58l-23,15.5a4.1,4.1,0,0,1-2,.7ZM36.55,15.41a1.39,1.39,0,1,0,1.39,1.39A1.39,1.39,0,0,0,36.55,15.41Zm-4.36,0a1.39,1.39,0,1,0,1.38,1.39A1.39,1.39,0,0,0,32.19,15.41Zm-23,11.76a1.16,1.16,0,1,0,1.16,1.16A1.16,1.16,0,0,0,9.16,27.17Zm.12-9.55a1.16,1.16,0,1,0,1.16,1.16A1.16,1.16,0,0,0,9.28,17.62Z" style="fill:#00ff7c"/></svg>