<svg id="Layer_1" data-name="Layer 1" xmlns="http://www.w3.org/2000/svg" viewBox="0 0 29.08 22.68"><title>dm_</title><path d="M12.87,22.68a.87.87,0,0,1-.4-.09c-.43-.21-.79-.52-.51-2a.11.11,0,0,0,0-.11.1.1,0,0,0-.1-.05H7.74a.57.57,0,0,1-.56-.57.56.56,0,0,1,.56-.56h5.51a.84.84,0,0,0,0-1.68H9.66a.56.56,0,0,1,0-1.11h5.82a.84.84,0,0,0,0-1.68H3.33a.57.57,0,0,1-.56-.57.56.56,0,0,1,.56-.56h17.2a.84.84,0,0,0,0-1.68h-11a.56.56,0,0,1,0-1.12h7a.84.84,0,0,0,0-1.68H.56A.56.56,0,0,1,0,8.74a.57.57,0,0,1,.56-.57H12.69a.84.84,0,0,0,0-1.68H8.23a.57.57,0,1,1,0-1.13h6.7a.84.84,0,0,0,0-1.68H5.6A.56.56,0,0,1,5,3.16a.57.57,0,0,1,.56-.57h6.26a.16.16,0,0,0,.11,0,.14.14,0,0,0,0-.11C11.6.67,12,.33,12.47.09a.87.87,0,0,1,.4-.09A2.49,2.49,0,0,1,14.1.43L28,9.78a2.25,2.25,0,0,1,1.12,1.56A2.23,2.23,0,0,1,28,12.89L14.09,22.25a2.53,2.53,0,0,1-1.22.43ZM22.07,9.3a.84.84,0,0,0,0,1.68.84.84,0,0,0,0-1.68Zm-2.64,0a.84.84,0,1,0,.84.84A.85.85,0,0,0,19.43,9.3ZM5.53,16.4a.7.7,0,0,0,0,1.4.7.7,0,0,0,0-1.4Zm.07-5.76a.7.7,0,1,0,.7.7A.7.7,0,0,0,5.6,10.64Z" style="fill:#ff0062"/></svg>