<svg id="Layer_1" data-name="Layer 1" xmlns="http://www.w3.org/2000/svg" viewBox="0 0 48.04 37.57"><title>dm_</title><path d="M46.12,16.05,23.41.73c-.82-.49-2-1-2.88-.56S19,1.44,19.63,4.24H9.39a1.15,1.15,0,0,0,0,2.3H24.66A1.14,1.14,0,0,1,25.8,7.67a1.15,1.15,0,0,1-1.14,1.15h-11a1.15,1.15,0,1,0,0,2.29H21a1.15,1.15,0,1,1,0,2.29H1.15a1.15,1.15,0,1,0,0,2.29H27.4a1.15,1.15,0,1,1,0,2.29H15.88a1.15,1.15,0,0,0-.08,2.29h18a1.15,1.15,0,0,1,0,2.29H5.68a1.15,1.15,0,1,0,0,2.29H25.57a1.15,1.15,0,1,1,0,2.29H16a1.14,1.14,0,0,0,0,2.28h5.88a1.15,1.15,0,0,1,0,2.29h-9a1.15,1.15,0,0,0,0,2.29h6.68c-.44,2.31.05,3,1,3.47s2.06-.08,2.88-.56L46.12,21.52A3.87,3.87,0,0,0,48,18.78h0A3.85,3.85,0,0,0,46.12,16.05ZM32,18a1.15,1.15,0,1,1,1.14-1.15A1.14,1.14,0,0,1,32,18Zm4.31,0a1.15,1.15,0,1,1,1.15-1.15A1.14,1.14,0,0,1,36.34,18ZM10.42,28.22a1.15,1.15,0,1,1-1.14-1.15A1.15,1.15,0,0,1,10.42,28.22Zm-1-8.29a1.15,1.15,0,1,1,1.15-1.15A1.14,1.14,0,0,1,9.39,19.93Z" style="fill:#5c2d70"/></svg>