<svg id="Layer_1" data-name="Layer 1" xmlns="http://www.w3.org/2000/svg" viewBox="0 0 178.8 37.39"><title>dm_</title><path d="M66.41,31.63h.84a1.8,1.8,0,0,1,.72.12,1.16,1.16,0,0,1,.45.38,2.2,2.2,0,0,1,.36,1.34,2.23,2.23,0,0,1-.41,1.35,1.43,1.43,0,0,1-1.19.46h-.77ZM67.17,35c.8,0,1.2-.49,1.2-1.46a2,2,0,0,0-.27-1.14,1,1,0,0,0-.87-.38h-.44v3Z" style="fill:#fff"/><path d="M75.23,35.28l-.37-1.07H73.68l-.36,1.07h-.41l1.35-3.71h0l1.35,3.71Zm-1.44-1.39h1l-.48-1.39Z" style="fill:#fff"/><path d="M80.76,35.28V32h-1v-.37h2.52V32H81.18v3.29Z" style="fill:#fff"/><path d="M88.68,35.28l-.36-1.07H87.14l-.37,1.07h-.4l1.34-3.71h.05l1.35,3.71Zm-1.43-1.39h1l-.48-1.39Z" style="fill:#fff"/><path d="M102.14,35.28l-.37-1.07H100.6l-.37,1.07h-.41l1.35-3.71h0l1.34,3.71Zm-1.43-1.39h1l-.48-1.39Z" style="fill:#fff"/><path d="M106.75,31.63h.4l1.53,2.7v-2.7h.45v0a.14.14,0,0,0,0,.08s0,.07,0,.14v3.39h-.32l-1.61-2.87v2.87h-.39Z" style="fill:#fff"/><path d="M114.4,35.28V32h-1v-.37h2.53V32h-1.08v3.29Z" style="fill:#fff"/><path d="M120.39,35.28v-.35h.72V32h-.68v-.35h1.81V32h-.72v3h.75v.34Z" style="fill:#fff"/><path d="M127.06,33.24h2.11v.39h-2.11Z" style="fill:#fff"/><path d="M136.06,33.53V35a1.73,1.73,0,0,1-1.07.38,1.25,1.25,0,0,1-.75-.22,1.56,1.56,0,0,1-.49-.65,3,3,0,0,1,0-2.11,1.31,1.31,0,0,1,.54-.59,1.25,1.25,0,0,1,.63-.17,1.36,1.36,0,0,1,.64.17,1.12,1.12,0,0,1,.45.44l-.28.23h0a1.68,1.68,0,0,0-.37-.38A.77.77,0,0,0,135,32a.89.89,0,0,0-.71.34,1.82,1.82,0,0,0-.27,1.12,2.15,2.15,0,0,0,.26,1.15A.83.83,0,0,0,135,35a1.64,1.64,0,0,0,.37,0,.88.88,0,0,0,.32-.17v-.87H135v-.35Zm-.31-1.09,0,0,0,0S135.71,32.42,135.75,32.44Zm0,0h0S135.77,32.47,135.75,32.44Z" style="fill:#fff"/><path d="M140.43,31.63h1.07a1.28,1.28,0,0,1,.92.28,1,1,0,0,1,.3.76,1,1,0,0,1-.21.61,1,1,0,0,1-.54.37l.85,1.63h-.46l-.81-1.61h-.71v1.61h-.41Zm1.12,1.67a.81.81,0,0,0,.56-.16.61.61,0,0,0,.18-.47.64.64,0,0,0-.18-.47.77.77,0,0,0-.56-.18h-.71V33.3Z" style="fill:#fff"/><path d="M149.24,35.28l-.37-1.07h-1.18l-.36,1.07h-.41l1.35-3.71h0l1.34,3.71Zm-1.43-1.39h1l-.48-1.39Z" style="fill:#fff"/><path d="M154.94,35.3l-1.24-3.68h.43l.94,2.81.88-2.8h.4l-1.22,3.67Z" style="fill:#fff"/><path d="M160.76,35.28v-.35h.72V32h-.68v-.35h1.81V32h-.72v3h.75v.34Z" style="fill:#fff"/><path d="M168.23,35.28V32h-1v-.37h2.53V32h-1.07v3.29Z" style="fill:#fff"/><path d="M175,35.28V33.84l-1.12-2.21h.46l.9,1.77.81-1.77h.43l-1,2.21v1.44Z" style="fill:#fff"/><path d="M160,26.05a7.09,7.09,0,0,1-4.71-1.64l1.2-1.78a4.71,4.71,0,0,0,1.48,1,5.29,5.29,0,0,0,2,.37,2.37,2.37,0,0,0,1.38-.37,1.23,1.23,0,0,0,.55-1,1,1,0,0,0-.63-.9,13.81,13.81,0,0,0-2-.78c-.44-.16-.83-.31-1.16-.45a6.42,6.42,0,0,1-1-.55,3.68,3.68,0,0,1-.79-.71,2.87,2.87,0,0,1-.49-.92,3.53,3.53,0,0,1-.2-1.21,2.92,2.92,0,0,1,1.15-2.36,4.61,4.61,0,0,1,3-.95,6.59,6.59,0,0,1,4.11,1.4L162.72,17a5,5,0,0,0-1.41-.87,4.31,4.31,0,0,0-1.65-.34,1.9,1.9,0,0,0-1,.3,1.08,1.08,0,0,0-.52.95,1.16,1.16,0,0,0,.58.94,8.55,8.55,0,0,0,1.52.75l.52.21,1,.37c.2.08.46.19.78.35a6,6,0,0,1,.69.38l.51.44a1.77,1.77,0,0,1,.39.52,4.29,4.29,0,0,1,.21.66,3.56,3.56,0,0,1,.1.83,3.52,3.52,0,0,1-.27,1.39A3.42,3.42,0,0,1,163.3,25a3.65,3.65,0,0,1-1.38.76A6.55,6.55,0,0,1,160,26.05Zm-12.55,0a6.46,6.46,0,0,1-3.12-.76,5.39,5.39,0,0,1-2.18-2.16,6.52,6.52,0,0,1-.8-3.25,7.08,7.08,0,0,1,.44-2.51A5.58,5.58,0,0,1,143,15.43a5.51,5.51,0,0,1,1.84-1.25,6.13,6.13,0,0,1,2.31-.44,6,6,0,0,1,3.06.77,5.25,5.25,0,0,1,2,2.13,6.65,6.65,0,0,1,.7,3.1,8.15,8.15,0,0,1,0,.93H144a.24.24,0,0,0-.16.07.25.25,0,0,0,0,.17,3.63,3.63,0,0,0,1.29,2.17,3.77,3.77,0,0,0,2.42.8,4,4,0,0,0,3.1-1.37l1.67,1.43a5.89,5.89,0,0,1-2,1.5A6.86,6.86,0,0,1,147.4,26.05Zm-.14-10.14a3.51,3.51,0,0,0-2.15.68,3.44,3.44,0,0,0-1.22,1.95.21.21,0,0,0,0,.17.22.22,0,0,0,.16.07h6.17a.18.18,0,0,0,.15-.07.21.21,0,0,0,0-.17,3.49,3.49,0,0,0-1.11-1.92A3.1,3.1,0,0,0,147.26,15.91ZM109.51,26.05a6,6,0,0,1-2.3-.44,5.25,5.25,0,0,1-1.82-1.22,5.57,5.57,0,0,1-1.21-1.93,7.35,7.35,0,0,1,0-5,5.9,5.9,0,0,1,1.21-2,5.5,5.5,0,0,1,1.82-1.28,5.6,5.6,0,0,1,2.28-.46,4.57,4.57,0,0,1,3.66,1.59.18.18,0,0,0,.15.07c.11,0,.25-.09.25-.2V13.92H116V25.85h-2.31V24.4a.2.2,0,0,0-.2-.2.26.26,0,0,0-.19.08A4.5,4.5,0,0,1,109.51,26.05ZM110,15.91A3.57,3.57,0,0,0,107.29,17,4.08,4.08,0,0,0,106.22,20a3.94,3.94,0,0,0,1,2.82,3.75,3.75,0,0,0,5.32,0A3.87,3.87,0,0,0,113.66,20a4.13,4.13,0,0,0-1-2.87A3.38,3.38,0,0,0,110,15.91ZM98.63,26.05a3,3,0,0,1-2.39-1,4.36,4.36,0,0,1-.86-2.93v-6a.2.2,0,0,0-.19-.2H93.88v-2h1.31a.2.2,0,0,0,.19-.2V9.81l2.43-.27v4.18a.2.2,0,0,0,.2.2h3.43v2H98a.2.2,0,0,0-.2.2v5.76a2.45,2.45,0,0,0,.33,1.44,1.24,1.24,0,0,0,1.06.47,4,4,0,0,0,1.7-.44l.62,2.06a6.61,6.61,0,0,1-1.16.45A6.79,6.79,0,0,1,98.63,26.05Zm-14.44,0a6,6,0,0,1-2.3-.44,5.39,5.39,0,0,1-1.83-1.22,5.54,5.54,0,0,1-1.2-1.93,7.2,7.2,0,0,1,0-5,5.88,5.88,0,0,1,1.2-2,5.58,5.58,0,0,1,4.1-1.74,4.54,4.54,0,0,1,3.66,1.59.2.2,0,0,0,.16.07c.1,0,.24-.09.24-.2V13.92h2.43V25.85h-2.3V24.4a.2.2,0,0,0-.2-.2.3.3,0,0,0-.2.08A4.48,4.48,0,0,1,84.19,26.05Zm.45-10.14A3.56,3.56,0,0,0,82,17,4,4,0,0,0,80.89,20a3.94,3.94,0,0,0,1,2.82,3.77,3.77,0,0,0,5.33,0A3.9,3.9,0,0,0,88.33,20a4.17,4.17,0,0,0-1-2.87A3.42,3.42,0,0,0,84.64,15.91ZM69.17,26.05a6.08,6.08,0,0,1-2.3-.44,5.35,5.35,0,0,1-1.82-1.22,5.72,5.72,0,0,1-1.21-1.93,7.35,7.35,0,0,1,0-5,5.9,5.9,0,0,1,1.21-2,5.54,5.54,0,0,1,4.1-1.74,4.67,4.67,0,0,1,3.75,1.59.17.17,0,0,0,.15.07c.11,0,.26-.09.26-.2V7.64h2.43V25.85H73.43V24.4a.2.2,0,0,0-.2-.2.32.32,0,0,0-.21.08A4.56,4.56,0,0,1,69.17,26.05Zm.46-10.14A3.6,3.6,0,0,0,67,17,4.08,4.08,0,0,0,65.88,20a3.94,3.94,0,0,0,1,2.82,3.54,3.54,0,0,0,2.7,1.11,3.66,3.66,0,0,0,2.7-1.1A3.83,3.83,0,0,0,73.42,20a4.15,4.15,0,0,0-1.06-2.88A3.57,3.57,0,0,0,69.63,15.91Zm106.75,10V19.4a3.93,3.93,0,0,0-.73-2.67,2.72,2.72,0,0,0-2.15-.82,3.39,3.39,0,0,0-2.58,1,4.08,4.08,0,0,0-.94,2.87v6.07h-2.43V7.64H170v7.63a.19.19,0,0,0,.2.19.34.34,0,0,0,.2-.06,4.81,4.81,0,0,1,1.77-1.24,6,6,0,0,1,2.25-.42,5.27,5.27,0,0,1,1.8.28,3.59,3.59,0,0,1,2.28,2.37,7.09,7.09,0,0,1,.32,2.28v7.19Zm-40.08,0V19.63c0-2.47-.88-3.72-2.62-3.72A2.73,2.73,0,0,0,131.47,17a4.53,4.53,0,0,0-.86,2.9v6h-2.43V19.63c0-2.47-.89-3.72-2.65-3.72A2.83,2.83,0,0,0,123.24,17a4.48,4.48,0,0,0-.87,2.9v6h-2.43V13.92h2.43v1.51a.19.19,0,0,0,.19.19.29.29,0,0,0,.2-.07,5.07,5.07,0,0,1,1.69-1.35,4.54,4.54,0,0,1,2-.46,3.61,3.61,0,0,1,3.5,1.94.22.22,0,0,0,.18.1c.06,0,.17,0,.2-.07a5,5,0,0,1,1.84-1.47,5.87,5.87,0,0,1,2.43-.5A3.75,3.75,0,0,1,137.65,15a6,6,0,0,1,1.08,3.91v6.94Z" style="fill:#fff"/><path d="M21.23,37.39a1.57,1.57,0,0,1-.67-.14c-.7-.35-1.29-.85-.84-3.25a.21.21,0,0,0,0-.19.25.25,0,0,0-.18-.08H12.77a.93.93,0,1,1,0-1.85h9.07a1.38,1.38,0,1,0,0-2.76H15.92a.92.92,0,0,1-.85-.92.94.94,0,0,1,.87-.92h9.6a1.38,1.38,0,1,0,0-2.76H5.5a.93.93,0,1,1,0-1.85H33.84a1.38,1.38,0,0,0,0-2.76H15.69a.92.92,0,0,1,.08-1.84H27.38a1.38,1.38,0,1,0,0-2.76H.93a.93.93,0,1,1,0-1.85h20a1.38,1.38,0,0,0,0-2.76H13.56a.93.93,0,0,1,0-1.85H24.62a1.38,1.38,0,0,0,0-2.76H9.24a.93.93,0,1,1,0-1.85H19.55a.21.21,0,0,0,.18-.09.21.21,0,0,0,0-.19c-.64-2.89,0-3.46.79-3.86A1.57,1.57,0,0,1,21.23,0a4.24,4.24,0,0,1,2,.7L46.11,16.13a3.67,3.67,0,0,1,1.83,2.57,3.67,3.67,0,0,1-1.83,2.56L23.23,36.69a4.18,4.18,0,0,1-2,.7Zm15.16-22a1.38,1.38,0,1,0,1.38,1.38A1.38,1.38,0,0,0,36.39,15.34Zm-4.35,0a1.38,1.38,0,1,0,1.38,1.38A1.38,1.38,0,0,0,32,15.34ZM9.12,27.05a1.16,1.16,0,1,0,1.16,1.15A1.15,1.15,0,0,0,9.12,27.05Zm.12-9.51a1.16,1.16,0,1,0,1.15,1.16A1.16,1.16,0,0,0,9.24,17.54Z" style="fill:#fff"/></svg>