<svg id="Layer_1" data-name="Layer 1" xmlns="http://www.w3.org/2000/svg" viewBox="0 0 77.32 19.47"><title>dm_</title><path d="M23.9,8.32,12.13.38A1.69,1.69,0,0,0,10.64.09c-.52.25-.79.65-.47,2.11H4.87a.6.6,0,1,0,0,1.19h7.91a.6.6,0,0,1,.59.6.59.59,0,0,1-.59.59H7.09a.59.59,0,0,0,0,1.18h3.79a.59.59,0,0,1,.59.59.6.6,0,0,1-.59.6H.59a.6.6,0,0,0,0,1.19H14.2a.59.59,0,0,1,.59.6.58.58,0,0,1-.59.59h-6a.59.59,0,0,0,0,1.18h9.33a.6.6,0,1,1,0,1.19H2.94a.6.6,0,0,0,0,1.19H13.25a.59.59,0,0,1,0,1.18H8.31a.61.61,0,0,0-.56.59.59.59,0,0,0,.56.59h3a.6.6,0,1,1,0,1.19H6.68a.59.59,0,1,0,0,1.18h3.47c-.23,1.2,0,1.57.49,1.8a1.69,1.69,0,0,0,1.49-.29L23.9,11.15a2,2,0,0,0,1-1.42h0A2,2,0,0,0,23.9,8.32Zm-7.31,1A.59.59,0,0,1,16,8.72a.6.6,0,1,1,1.19,0A.59.59,0,0,1,16.59,9.31Zm2.24,0a.58.58,0,0,1-.59-.59.59.59,0,0,1,.59-.6.6.6,0,0,1,.6.6A.59.59,0,0,1,18.83,9.31ZM5.4,14.62a.59.59,0,0,1-.59.6.6.6,0,1,1,0-1.19A.59.59,0,0,1,5.4,14.62Zm-.53-4.29a.6.6,0,1,1,0-1.19.6.6,0,0,1,0,1.19Z" style="fill:#5c2d70"/><path d="M30.84,10.71a3.16,3.16,0,0,1,.22-1.2,2.7,2.7,0,0,1,1.46-1.57,2.7,2.7,0,0,1,1.1-.22,2.26,2.26,0,0,1,1.82.77h0V4.87h1.32v8.69H35.53v-.77h0a2.21,2.21,0,0,1-1.88.87,2.78,2.78,0,0,1-1.11-.22,2.53,2.53,0,0,1-.88-.59,2.58,2.58,0,0,1-.58-.93A3.18,3.18,0,0,1,30.84,10.71Zm1.35,0A1.75,1.75,0,0,0,32.65,12a1.58,1.58,0,0,0,1.19.49A1.64,1.64,0,0,0,35,12a1.71,1.71,0,0,0,.49-1.26,1.84,1.84,0,0,0-.47-1.28,1.69,1.69,0,0,0-2.4,0A1.82,1.82,0,0,0,32.19,10.71Z" style="fill:#5c2d70"/><path d="M37.88,10.69a3.08,3.08,0,0,1,.37-1.52,2.7,2.7,0,0,1,1.06-1.06,3.23,3.23,0,0,1,1.59-.39,3.16,3.16,0,0,1,1.56.37,2.73,2.73,0,0,1,1.08,1.05,3.15,3.15,0,0,1,.38,1.55,3.11,3.11,0,0,1-.38,1.54,2.6,2.6,0,0,1-1.08,1,3.22,3.22,0,0,1-1.56.38,3.37,3.37,0,0,1-1.24-.23,2.79,2.79,0,0,1-1-.62,2.88,2.88,0,0,1-.61-.94A3.29,3.29,0,0,1,37.88,10.69Zm1.34,0A1.8,1.8,0,0,0,39.69,12a1.59,1.59,0,0,0,1.21.51,1.62,1.62,0,0,0,1.2-.5,1.78,1.78,0,0,0,.48-1.27,1.77,1.77,0,0,0-.48-1.28,1.71,1.71,0,0,0-2.41,0A1.77,1.77,0,0,0,39.22,10.69Z" style="fill:#5c2d70"/><path d="M44.54,8.93V7.8h.7V5.89l1.32-.15V7.8h1.7V8.93h-1.7v2.69a1.09,1.09,0,0,0,.14.62.49.49,0,0,0,.42.18,1.8,1.8,0,0,0,.85-.25l.34,1.15a2.85,2.85,0,0,1-.63.25,3.13,3.13,0,0,1-.83.09,1.49,1.49,0,0,1-1.18-.49,2.07,2.07,0,0,1-.43-1.43V8.93Z" style="fill:#5c2d70"/><path d="M49.71,13.56V7.8H51v.8h0a2.5,2.5,0,0,1,.83-.66,2.19,2.19,0,0,1,1-.22,1.8,1.8,0,0,1,1.72,1h0a2.49,2.49,0,0,1,.9-.71,2.78,2.78,0,0,1,1.17-.24,1.87,1.87,0,0,1,1.5.62,2.9,2.9,0,0,1,.52,1.89v3.34H57.35v-3c0-1.09-.37-1.64-1.13-1.64a1.18,1.18,0,0,0-1,.47,2.05,2.05,0,0,0-.38,1.3v2.88H53.56v-3c0-1.09-.38-1.64-1.15-1.64a1.21,1.21,0,0,0-1,.47,2,2,0,0,0-.39,1.3v2.87Z" style="fill:#5c2d70"/><path d="M59.84,10.68a3.32,3.32,0,0,1,.21-1.2,2.79,2.79,0,0,1,.59-.94,2.7,2.7,0,0,1,.9-.61,2.89,2.89,0,0,1,1.11-.21,2.82,2.82,0,0,1,1.47.37,2.49,2.49,0,0,1,1,1,3.19,3.19,0,0,1,.35,1.5,3.55,3.55,0,0,1,0,.52h-4.2a1.61,1.61,0,0,0,1.65,1.32,1.75,1.75,0,0,0,1.43-.68l.92.79a2.71,2.71,0,0,1-1,.79,3.19,3.19,0,0,1-1.42.3,3.15,3.15,0,0,1-1.51-.37,2.63,2.63,0,0,1-1.05-1A3.13,3.13,0,0,1,59.84,10.68Zm1.4-.61h2.88a1.61,1.61,0,0,0-.49-.84,1.32,1.32,0,0,0-.91-.31,1.54,1.54,0,0,0-.95.3A1.5,1.5,0,0,0,61.24,10.07Z" style="fill:#5c2d70"/><path d="M66.21,12.81l.66-1a2.37,2.37,0,0,0,.75.52,2.31,2.31,0,0,0,.91.16,1,1,0,0,0,.59-.15.48.48,0,0,0,.22-.41.38.38,0,0,0-.25-.34,6.19,6.19,0,0,0-.9-.36c-.21-.07-.39-.15-.55-.21a2.75,2.75,0,0,1-.46-.27,1.67,1.67,0,0,1-.39-.35,1.39,1.39,0,0,1-.25-.45,1.89,1.89,0,0,1-.09-.6A1.47,1.47,0,0,1,67,8.18a2.21,2.21,0,0,1,1.45-.46,3.18,3.18,0,0,1,2,.72l-.66,1A2.44,2.44,0,0,0,69.13,9a2,2,0,0,0-.73-.15A.73.73,0,0,0,68,9a.38.38,0,0,0-.2.36.42.42,0,0,0,.22.36,4.08,4.08,0,0,0,.7.35l.24.09.44.18a4.11,4.11,0,0,1,.38.16l.33.19.25.21a.94.94,0,0,1,.2.27,2.12,2.12,0,0,1,.11.33,1.73,1.73,0,0,1,0,.41,1.68,1.68,0,0,1-.13.68,1.67,1.67,0,0,1-.39.56,1.77,1.77,0,0,1-.68.37,3,3,0,0,1-1,.14A3.39,3.39,0,0,1,66.21,12.81Z" style="fill:#5c2d70"/><path d="M71.87,13.56V4.87h1.32V8.52h0a2.38,2.38,0,0,1,.86-.6,2.82,2.82,0,0,1,1.09-.2,2.65,2.65,0,0,1,.87.13,1.73,1.73,0,0,1,.67.42,1.75,1.75,0,0,1,.45.75,3.31,3.31,0,0,1,.16,1.1v3.45H76V10.46a1.78,1.78,0,0,0-.32-1.19,1.16,1.16,0,0,0-.93-.35,1.45,1.45,0,0,0-1.14.44,1.77,1.77,0,0,0-.42,1.27v2.93Z" style="fill:#5c2d70"/></svg>