<svg id="Layer_1" data-name="Layer 1" xmlns="http://www.w3.org/2000/svg" viewBox="0 0 167.68 41.66"><title>dm_</title><path d="M23.65,41.66a1.66,1.66,0,0,1-.75-.17c-.78-.38-1.44-.94-.93-3.61a.23.23,0,0,0,0-.21.25.25,0,0,0-.19-.09h-7.5a1,1,0,1,1,0-2.07h10.1a1.54,1.54,0,1,0,0-3.08H17.74a1,1,0,0,1-.95-1,1,1,0,0,1,1-1h10.7a1.54,1.54,0,0,0,0-3.07H6.12a1,1,0,0,1,0-2.07H37.7a1.54,1.54,0,0,0,0-3.08H17.48a1,1,0,0,1-.94-1,1,1,0,0,1,1-1H30.5a1.54,1.54,0,0,0,0-3.08H1A1,1,0,0,1,1,15H23.31a1.54,1.54,0,0,0,0-3.07H15.11a1,1,0,1,1,0-2.06H27.43a1.54,1.54,0,0,0,0-3.08H10.29a1,1,0,0,1,0-2.07H21.78a.25.25,0,0,0,.2-.09A.23.23,0,0,0,22,4.46c-.72-3.23,0-3.86.87-4.3A1.65,1.65,0,0,1,23.65,0a4.66,4.66,0,0,1,2.24.78L51.37,18a4.12,4.12,0,0,1,2,2.86,4.12,4.12,0,0,1-2,2.86L25.88,40.88a4.7,4.7,0,0,1-2.23.78ZM40.53,17.09a1.54,1.54,0,1,0,1.54,1.54A1.54,1.54,0,0,0,40.53,17.09Zm-4.84,0a1.54,1.54,0,1,0,1.54,1.54A1.54,1.54,0,0,0,35.69,17.09Zm-25.53,13a1.29,1.29,0,1,0,1.29,1.29A1.28,1.28,0,0,0,10.16,30.13Zm.13-10.59a1.29,1.29,0,1,0,1.29,1.29A1.29,1.29,0,0,0,10.29,19.54Z" style="fill:#fff"/><path d="M71.55,27.22a6.16,6.16,0,0,1-2.36-.45,5.35,5.35,0,0,1-1.87-1.25,5.76,5.76,0,0,1-1.24-2,7.59,7.59,0,0,1,0-5.15,6,6,0,0,1,1.24-2,5.79,5.79,0,0,1,1.87-1.31,5.73,5.73,0,0,1,2.34-.48,4.77,4.77,0,0,1,3.84,1.64.23.23,0,0,0,.18.08c.12,0,.29-.1.29-.23V8.3h2.45V27H76V25.54a.24.24,0,0,0-.23-.23.39.39,0,0,0-.24.09A4.66,4.66,0,0,1,71.55,27.22ZM72,16.77a3.71,3.71,0,0,0-2.78,1.15,4.21,4.21,0,0,0-1.11,3,4.09,4.09,0,0,0,1.08,2.93A3.7,3.7,0,0,0,72,25a3.85,3.85,0,0,0,2.81-1.14A4,4,0,0,0,76,21a4.28,4.28,0,0,0-1.1-3A3.69,3.69,0,0,0,72,16.77Z" style="fill:#fff"/><path d="M87.58,27.22a7.12,7.12,0,0,1-2.64-.48,5.83,5.83,0,0,1-2-1.31,5.93,5.93,0,0,1-1.29-2,6.71,6.71,0,0,1-.47-2.51,6.56,6.56,0,0,1,.79-3.24,5.78,5.78,0,0,1,2.26-2.26,6.89,6.89,0,0,1,3.39-.83,7,7,0,0,1,3.34.79,5.78,5.78,0,0,1,2.28,2.24,7,7,0,0,1,0,6.59,5.82,5.82,0,0,1-2.28,2.23A7,7,0,0,1,87.58,27.22Zm0-10.45A3.72,3.72,0,0,0,84.73,18a4.23,4.23,0,0,0-1.09,2.95,4.11,4.11,0,0,0,1.11,2.93A3.71,3.71,0,0,0,87.58,25a3.77,3.77,0,0,0,2.8-1.17,4.07,4.07,0,0,0,1.14-3,4.14,4.14,0,0,0-1.12-3A3.79,3.79,0,0,0,87.58,16.77Z" style="fill:#fff"/><path d="M100.7,27.22a3,3,0,0,1-2.43-1,4.44,4.44,0,0,1-.88-3V17a.23.23,0,0,0-.23-.23H95.84v-2h1.32a.23.23,0,0,0,.23-.23v-4l2.45-.27v4.28a.23.23,0,0,0,.23.23h3.51v2h-3.51a.23.23,0,0,0-.23.23V23a2.58,2.58,0,0,0,.34,1.5,1.31,1.31,0,0,0,1.11.5,4.05,4.05,0,0,0,1.74-.45l.63,2.07a6.13,6.13,0,0,1-1.18.46A7.11,7.11,0,0,1,100.7,27.22Z" style="fill:#fff"/><path d="M124.1,27v-6.4c0-2.56-.91-3.86-2.72-3.86a2.85,2.85,0,0,0-2.3,1.13,4.71,4.71,0,0,0-.9,3V27h-2.45v-6.4c0-2.56-.93-3.86-2.76-3.86a2.93,2.93,0,0,0-2.37,1.13,4.6,4.6,0,0,0-.91,3V27h-2.45V14.77h2.45V16.3a.23.23,0,0,0,.23.23.27.27,0,0,0,.21-.09,5.22,5.22,0,0,1,1.74-1.38,4.68,4.68,0,0,1,2.06-.48,3.71,3.71,0,0,1,3.58,2,.22.22,0,0,0,.2.12.34.34,0,0,0,.24-.09,5.07,5.07,0,0,1,1.88-1.5,6,6,0,0,1,2.49-.52,3.88,3.88,0,0,1,3.13,1.3,6.18,6.18,0,0,1,1.1,4V27Z" style="fill:#fff"/><path d="M135.86,27.22a6.65,6.65,0,0,1-3.21-.77,5.69,5.69,0,0,1-2.24-2.22,6.77,6.77,0,0,1-.82-3.34,7,7,0,0,1,.46-2.58,5.9,5.9,0,0,1,1.24-2,5.54,5.54,0,0,1,1.9-1.28,6.17,6.17,0,0,1,2.36-.46,6.08,6.08,0,0,1,3.14.8,5.33,5.33,0,0,1,2.08,2.18,6.88,6.88,0,0,1,.72,3.19,6.21,6.21,0,0,1-.05.92h-9.05a.24.24,0,0,0-.18.09.22.22,0,0,0-.05.19,3.79,3.79,0,0,0,1.34,2.26A3.89,3.89,0,0,0,136,25a4.11,4.11,0,0,0,3.2-1.41l1.68,1.45a6,6,0,0,1-2,1.51A6.89,6.89,0,0,1,135.86,27.22Zm-.15-10.45a3.44,3.44,0,0,0-3.5,2.73.24.24,0,0,0,.23.28h6.36a.25.25,0,0,0,.18-.08.24.24,0,0,0,0-.2,3.62,3.62,0,0,0-1.15-2A3.17,3.17,0,0,0,135.71,16.77Z" style="fill:#fff"/><path d="M148.53,27.22a7.29,7.29,0,0,1-4.82-1.67l1.2-1.78a5.22,5.22,0,0,0,1.52,1,5.46,5.46,0,0,0,2.1.38,2.41,2.41,0,0,0,1.44-.39,1.29,1.29,0,0,0,.58-1.09,1.09,1.09,0,0,0-.67-.95,13.7,13.7,0,0,0-2-.81c-.46-.16-.86-.31-1.19-.46a6.85,6.85,0,0,1-1-.57,3.59,3.59,0,0,1-.81-.72,3.09,3.09,0,0,1-.5-.94,3.66,3.66,0,0,1-.2-1.24,3,3,0,0,1,1.18-2.41,4.67,4.67,0,0,1,3-1,6.75,6.75,0,0,1,4.2,1.43l-1.21,1.89A5,5,0,0,0,150,17a4.54,4.54,0,0,0-1.72-.36,2,2,0,0,0-1.07.32,1.13,1.13,0,0,0-.55,1,1.19,1.19,0,0,0,.61,1,8.09,8.09,0,0,0,1.57.78l.53.21,1,.38.81.36a4.6,4.6,0,0,1,.7.4,5.58,5.58,0,0,1,.53.45,1.77,1.77,0,0,1,.39.52,4.19,4.19,0,0,1,.22.68,3.25,3.25,0,0,1,.1.85,3.67,3.67,0,0,1-.28,1.42,3.22,3.22,0,0,1-.81,1.14,3.9,3.9,0,0,1-1.4.77A6.63,6.63,0,0,1,148.53,27.22Z" style="fill:#fff"/><path d="M165.23,27V20.39a4.12,4.12,0,0,0-.75-2.76,2.82,2.82,0,0,0-2.24-.86,3.52,3.52,0,0,0-2.68,1,4.19,4.19,0,0,0-1,3V27h-2.45V8.3h2.45v7.83a.23.23,0,0,0,.23.23.41.41,0,0,0,.22-.07A4.76,4.76,0,0,1,160.86,15a6.05,6.05,0,0,1,2.31-.44,5.57,5.57,0,0,1,1.85.29,3.84,3.84,0,0,1,1.4.87,3.8,3.8,0,0,1,.93,1.56,7.47,7.47,0,0,1,.33,2.34V27Z" style="fill:#fff"/></svg>